<?xml version="1.0" encoding="utf-8"?>
<!-- Generator: Adobe Illustrator 25.4.1, SVG Export Plug-In . SVG Version: 6.00 Build 0)  -->
<svg version="1.1" id="Layer_1" xmlns="http://www.w3.org/2000/svg" xmlns:xlink="http://www.w3.org/1999/xlink" x="0px" y="0px"
	 viewBox="0 0 512 512" style="enable-background:new 0 0 512 512;" xml:space="preserve">
<style type="text/css">
	.st0{fill:#FF005C;}
</style>
<g>
	<path class="st0" d="M278.59,261.52l21.36-30.51l-18.37-29.39l-6.48-10.37l-0.1-0.16l-21.36,30.51l-84.61-135.4l-6.34-10.15
		l-11.71,2.49l-21.76,4.63l-11.71,2.49l6.35,10.15l102.75,164.43l-49.56,70.78l24.95,39.92l49.56-70.78l80.03,128.08l6.34,10.15
		l11.71-2.49l21.76-4.63l11.71-2.49l-6.35-10.15L278.59,261.52z M343.28,425.74l-84.73-135.6l-24.95-39.92l-98.04-156.9l21.76-4.63
		l89.31,142.93l24.95,39.92l93.47,149.58L343.28,425.74z"/>
	<polygon class="st0" points="311.37,196.17 313.62,199.77 317.49,205.96 319.13,203.62 354.88,152.55 339.64,155.79 309.12,162.28 
		292.99,165.71 292.73,165.76 292.55,166.03 292.65,166.2 299.12,176.56 	"/>
	<polygon class="st0" points="256.25,422.15 150.35,444.66 184.43,395.99 159.48,356.06 88.19,457.88 70.03,483.82 60.56,497.34 
		122.72,484.12 274.78,451.8 268.44,441.65 	"/>
	<path class="st0" d="M436.19,17.9L436.19,17.9l-30.52,6.49l-16.14,3.43l-69.49,14.77l-16.53,3.51l0,0l-75.83,16.12l6.34,10.15l0,0
		l7,11.2l6.34,10.15L323.2,77.6l16.53-3.51l0.01,0.01l20.19-4.29l-19.19,27.4l-15.53,22.17l-8.8,12.57l0.25-0.05l16.14-3.43
		l30.52-6.49l15.24-3.24l8.8-12.57l15.53-22.17l19.19-27.4l0.01-0.01l9.45-13.5l10.43-14.9l0,0l9.46-13.51L436.19,17.9z
		 M416.3,46.32l-9.45,13.5l-0.01,0.01l-19.19,27.4l-30.52,6.49l19.19-27.4l0.01-0.01l9.46-13.5l-16.14,3.43l-0.25,0.05l-36,7.65
		l-7-11.2l53.43-11.36l0.25-0.05l16.14-3.43l30.52-6.49L416.3,46.32z"/>
</g>
</svg>
