<?xml version="1.0" encoding="utf-8"?>
<!-- Generator: Adobe Illustrator 25.4.1, SVG Export Plug-In . SVG Version: 6.00 Build 0)  -->
<svg version="1.2" baseProfile="tiny" xmlns="http://www.w3.org/2000/svg" xmlns:xlink="http://www.w3.org/1999/xlink" x="0px"
	 y="0px" viewBox="0 0 2000 2000" overflow="visible" xml:space="preserve">
<g id="Layer_2" display="none">
	<rect x="-64.53" y="-46.15" display="inline" fill="#FF0000" width="2092.6" height="2144.68"/>
</g>
<g id="Layer_1">
	<path fill="#FFFFFF" d="M1141.61,237.12C891.83-12.65,486.87-12.65,237.1,237.13s-249.77,654.74,0.01,904.51
		c220.1,220.09,560.56,245.98,809.29,78.18l707.71,707.69c30.27,30.26,79.33,30.26,109.59,0l63.81-63.82
		c30.26-30.27,30.26-79.33,0-109.59l-707.71-707.69C1387.6,797.67,1361.71,457.21,1141.61,237.12z M996.22,996.23
		c-169.47,169.47-444.24,169.48-613.71,0.01S213.03,552,382.5,382.52s444.23-169.48,613.71-0.01S1165.69,826.75,996.22,996.23z"/>
</g>
</svg>
