<?xml version="1.0" encoding="utf-8"?>
<!-- Generator: Adobe Illustrator 25.4.1, SVG Export Plug-In . SVG Version: 6.00 Build 0)  -->
<svg version="1.1" xmlns="http://www.w3.org/2000/svg" xmlns:xlink="http://www.w3.org/1999/xlink" x="0px" y="0px"
	 viewBox="0 0 128 128" style="enable-background:new 0 0 128 128;" xml:space="preserve">
<style type="text/css">
	.st0{fill:#FFFFFF;stroke:#FFFFFF;stroke-width:3;stroke-miterlimit:10;}
</style>
<g id="Layer_1">
</g>
<g id="Layer_2">
</g>
<g id="Layer_3">
	<g>
		<path class="st0" d="M121.46,87.47v-3.22h-3.22H37.7l2.63-9.83l6.37-0.45l3.41-0.24l68.12-4.76l3.22-0.22v-3.22V37.85v-3.22
			l-3.22-0.11l-86.87-3.03l-5.55-12.51l-1.43-3.22h-3.52H6.35l1.43,3.22H22.3l5.5,12.38l1.45,3.27l16.07,36.22l-4.1,0.29l-3.39,0.24
			l-0.88,3.29l-2.57,9.59l-0.86,3.22h3.33h81.4H121.46z M32.83,34.76l85.42,2.98v28.01l-69.51,4.86L32.83,34.76z"/>
		<path class="st0" d="M50.94,91.37c-5.76,0-10.43,4.67-10.43,10.43s4.67,10.43,10.43,10.43s10.43-4.67,10.43-10.43
			S56.7,91.37,50.94,91.37z M50.94,109.44c-4.22,0-7.64-3.42-7.64-7.64c0-4.22,3.42-7.64,7.64-7.64c4.22,0,7.64,3.42,7.64,7.64
			C58.57,106.02,55.16,109.44,50.94,109.44z"/>
		<path class="st0" d="M111.22,91.37c-5.76,0-10.43,4.67-10.43,10.43s4.67,10.43,10.43,10.43c5.76,0,10.43-4.67,10.43-10.43
			S116.98,91.37,111.22,91.37z M111.22,109.44c-4.22,0-7.64-3.42-7.64-7.64c0-4.22,3.42-7.64,7.64-7.64s7.64,3.42,7.64,7.64
			C118.86,106.02,115.44,109.44,111.22,109.44z"/>
	</g>
</g>
</svg>
